<?xml version="1.0" encoding="utf-8"?>
<!-- Generator: Adobe Illustrator 23.0.4, SVG Export Plug-In . SVG Version: 6.00 Build 0)  -->
<svg version="1.1" id="Layer_1" focusable="false" xmlns="http://www.w3.org/2000/svg" xmlns:xlink="http://www.w3.org/1999/xlink"
	 x="0px" y="0px" viewBox="0 0 512 512" style="enable-background:new 0 0 512 512;" xml:space="preserve">
<style type="text/css">
	.st0{fill:#86A3FB;}
</style>
<path class="st0" d="M128,480h256V80c0-26.5-21.5-48-48-48H176c-26.5,0-48,21.5-48,48V480z M192,96h128v32H192V96z M512,176v256
	c0,26.5-21.5,48-48,48h-48V128h48C490.5,128,512,149.5,512,176z M96,480H48c-26.5,0-48-21.5-48-48V176c0-26.5,21.5-48,48-48h48V480z
	"/>
</svg>
